<svg width="423" height="335" viewBox="0 0 423 335" xmlns="http://www.w3.org/2000/svg" role="img" aria-label="AI usage">
<style>
.t{font:600 18px 'Segoe UI',Ubuntu,sans-serif;fill:#4ade80}
.user{font:600 14px 'Segoe UI',Ubuntu,sans-serif;fill:#9e9e9e}
.hdr{font:600 11px 'Segoe UI',Ubuntu,sans-serif;fill:#6b6b6b;letter-spacing:1.5px}
.big{font:800 44px 'Segoe UI',Ubuntu,sans-serif;fill:#4ade80}
.sub{font:400 13px 'Segoe UI',Ubuntu,sans-serif;fill:#9e9e9e}
.lbl{font:400 13px 'Segoe UI',Ubuntu,sans-serif;fill:#a3a3a3}
.val{font:700 14px 'Segoe UI',Ubuntu,sans-serif;fill:#4ade80}
.foot{font:400 11px 'Segoe UI',Ubuntu,sans-serif;fill:#6b6b6b}
.fade{opacity:0;animation:fadeIn .8s ease-in-out forwards}
@keyframes fadeIn{to{opacity:1}}
</style>
<rect width="422" height="334" x="0.5" y="0.5" rx="4.5" fill="#000000" stroke="#262626" stroke-width="1"/>
<text x="30" y="34" class="t fade">&#9889; AI Usage</text>
<text x="393" y="34" text-anchor="end" class="user fade">@hvboq</text>
<text x="393" y="49" text-anchor="end" class="foot fade">API-equivalent &#183; 2026-09-01</text>
<line x1="200" y1="60" x2="200" y2="175" stroke="#262626" stroke-width="1"/>
<g class="fade" style="animation-delay:150ms"><text x="30" y="74" class="hdr">ALL-TIME</text><text x="30" y="140" class="big">67.5B</text><text x="30" y="165" class="sub">tokens &#183; 95.6% cache read</text></g>
<g class="fade" style="animation-delay:300ms"><text x="222" y="74" class="hdr">COST</text><text x="222" y="98" class="lbl">USD</text><text x="393" y="98" text-anchor="end" class="val">$ 30,605</text><text x="222" y="123" class="lbl">KRW</text><text x="393" y="123" text-anchor="end" class="val">₩ 42,372,308</text><text x="222" y="148" class="lbl">EUR</text><text x="393" y="148" text-anchor="end" class="val">€ 26,198</text><text x="222" y="173" class="lbl">CNY</text><text x="393" y="173" text-anchor="end" class="val">¥ 206,368</text></g>
<g class="fade" style="animation-delay:500ms"><text x="30" y="200" class="hdr">GRASS &#183; LAST 26 WEEKS</text><rect class="grid-cell" data-date="2026-03-04" x="30" y="212" width="11" height="11" rx="2" fill="#1b1b1b"/><rect class="grid-cell" data-date="2026-03-05" x="30" y="226" width="11" height="11" rx="2" fill="#1b1b1b"/><rect class="grid-cell" data-date="2026-03-06" x="30" y="240" width="11" height="11" rx="2" fill="#1b1b1b"/><rect class="grid-cell" data-date="2026-03-07" x="30" y="254" width="11" height="11" rx="2" fill="#1b1b1b"/><rect class="grid-cell" data-date="2026-03-08" x="30" y="268" width="11" height="11" rx="2" fill="#1b1b1b"/><rect class="grid-cell" data-date="2026-03-09" x="30" y="282" width="11" height="11" rx="2" fill="#1b1b1b"/><rect class="grid-cell" data-date="2026-03-10" x="30" y="296" width="11" height="11" rx="2" fill="#1b1b1b"/><rect class="grid-cell" data-date="2026-03-11" x="44" y="212" width="11" height="11" rx="2" fill="#1b1b1b"/><rect class="grid-cell" data-date="2026-03-12" x="44" y="226" width="11" height="11" rx="2" fill="#1b1b1b"/><rect class="grid-cell" data-date="2026-03-13" x="44" y="240" width="11" height="11" rx="2" fill="#1b1b1b"/><rect class="grid-cell" data-date="2026-03-14" x="44" y="254" width="11" height="11" rx="2" fill="#1b1b1b"/><rect class="grid-cell" data-date="2026-03-15" x="44" y="268" width="11" height="11" rx="2" fill="#1b1b1b"/><rect class="grid-cell" data-date="2026-03-16" x="44" y="282" width="11" height="11" rx="2" fill="#1b1b1b"/><rect class="grid-cell" data-date="2026-03-17" x="44" y="296" width="11" height="11" rx="2" fill="#1b1b1b"/><rect class="grid-cell" data-date="2026-03-18" x="58" y="212" width="11" height="11" rx="2" fill="#1b1b1b"/><rect class="grid-cell" data-date="2026-03-19" x="58" y="226" width="11" height="11" rx="2" fill="#1b1b1b"/><rect class="grid-cell" data-date="2026-03-20" x="58" y="240" width="11" height="11" rx="2" fill="#1b1b1b"/><rect class="grid-cell" data-date="2026-03-21" x="58" y="254" width="11" height="11" rx="2" fill="#1b1b1b"/><rect class="grid-cell" data-date="2026-03-22" x="58" y="268" width="11" height="11" rx="2" fill="#1b1b1b"/><rect class="grid-cell" data-date="2026-03-23" x="58" y="282" width="11" height="11" rx="2" fill="#1b1b1b"/><rect class="grid-cell" data-date="2026-03-24" x="58" y="296" width="11" height="11" rx="2" fill="#1b1b1b"/><rect class="grid-cell" data-date="2026-03-25" x="72" y="212" width="11" height="11" rx="2" fill="#1b1b1b"/><rect class="grid-cell" data-date="2026-03-26" x="72" y="226" width="11" height="11" rx="2" fill="#1b1b1b"/><rect class="grid-cell" data-date="2026-03-27" x="72" y="240" width="11" height="11" rx="2" fill="#1b1b1b"/><rect class="grid-cell" data-date="2026-03-28" x="72" y="254" width="11" height="11" rx="2" fill="#1b1b1b"/><rect class="grid-cell" data-date="2026-03-29" x="72" y="268" width="11" height="11" rx="2" fill="#1b1b1b"/><rect class="grid-cell" data-date="2026-03-30" x="72" y="282" width="11" height="11" rx="2" fill="#1b1b1b"/><rect class="grid-cell" data-date="2026-03-31" x="72" y="296" width="11" height="11" rx="2" fill="#1b1b1b"/><rect class="grid-cell" data-date="2026-04-01" x="86" y="212" width="11" height="11" rx="2" fill="#1b1b1b"/><rect class="grid-cell" data-date="2026-04-02" x="86" y="226" width="11" height="11" rx="2" fill="#1b1b1b"/><rect class="grid-cell" data-date="2026-04-03" x="86" y="240" width="11" height="11" rx="2" fill="#1b1b1b"/><rect class="grid-cell" data-date="2026-04-04" x="86" y="254" width="11" height="11" rx="2" fill="#1b1b1b"/><rect class="grid-cell" data-date="2026-04-05" x="86" y="268" width="11" height="11" rx="2" fill="#1b1b1b"/><rect class="grid-cell" data-date="2026-04-06" x="86" y="282" width="11" height="11" rx="2" fill="#1b1b1b"/><rect class="grid-cell" data-date="2026-04-07" x="86" y="296" width="11" height="11" rx="2" fill="#1b1b1b"/><rect class="grid-cell" data-date="2026-04-08" x="100" y="212" width="11" height="11" rx="2" fill="#1b1b1b"/><rect class="grid-cell" data-date="2026-04-09" x="100" y="226" width="11" height="11" rx="2" fill="#1b1b1b"/><rect class="grid-cell" data-date="2026-04-10" x="100" y="240" width="11" height="11" rx="2" fill="#1b1b1b"/><rect class="grid-cell" data-date="2026-04-11" x="100" y="254" width="11" height="11" rx="2" fill="#1b1b1b"/><rect class="grid-cell" data-date="2026-04-12" x="100" y="268" width="11" height="11" rx="2" fill="#1b1b1b"/><rect class="grid-cell" data-date="2026-04-13" x="100" y="282" width="11" height="11" rx="2" fill="#1b1b1b"/><rect class="grid-cell" data-date="2026-04-14" x="100" y="296" width="11" height="11" rx="2" fill="#1b1b1b"/><rect class="grid-cell" data-date="2026-04-15" x="114" y="212" width="11" height="11" rx="2" fill="#1b1b1b"/><rect class="grid-cell" data-date="2026-04-16" x="114" y="226" width="11" height="11" rx="2" fill="#1b1b1b"/><rect class="grid-cell" data-date="2026-04-17" x="114" y="240" width="11" height="11" rx="2" fill="#1b1b1b"/><rect class="grid-cell" data-date="2026-04-18" x="114" y="254" width="11" height="11" rx="2" fill="#1b1b1b"/><rect class="grid-cell" data-date="2026-04-19" x="114" y="268" width="11" height="11" rx="2" fill="#1b1b1b"/><rect class="grid-cell" data-date="2026-04-20" x="114" y="282" width="11" height="11" rx="2" fill="#1b1b1b"/><rect class="grid-cell" data-date="2026-04-21" x="114" y="296" width="11" height="11" rx="2" fill="#1b1b1b"/><rect class="grid-cell" data-date="2026-04-22" x="128" y="212" width="11" height="11" rx="2" fill="#1b1b1b"/><rect class="grid-cell" data-date="2026-04-23" x="128" y="226" width="11" height="11" rx="2" fill="#1b1b1b"/><rect class="grid-cell" data-date="2026-04-24" x="128" y="240" width="11" height="11" rx="2" fill="#1b1b1b"/><rect class="grid-cell" data-date="2026-04-25" x="128" y="254" width="11" height="11" rx="2" fill="#1b1b1b"/><rect class="grid-cell" data-date="2026-04-26" x="128" y="268" width="11" height="11" rx="2" fill="#1b1b1b"/><rect class="grid-cell" data-date="2026-04-27" x="128" y="282" width="11" height="11" rx="2" fill="#1b1b1b"/><rect class="grid-cell" data-date="2026-04-28" x="128" y="296" width="11" height="11" rx="2" fill="#1b1b1b"/><rect class="grid-cell" data-date="2026-04-29" x="142" y="212" width="11" height="11" rx="2" fill="#1b1b1b"/><rect class="grid-cell" data-date="2026-04-30" x="142" y="226" width="11" height="11" rx="2" fill="#1b1b1b"/><rect class="grid-cell" data-date="2026-05-01" x="142" y="240" width="11" height="11" rx="2" fill="#1b1b1b"/><rect class="grid-cell" data-date="2026-05-02" x="142" y="254" width="11" height="11" rx="2" fill="#1b1b1b"/><rect class="grid-cell" data-date="2026-05-03" x="142" y="268" width="11" height="11" rx="2" fill="#1b1b1b"/><rect class="grid-cell" data-date="2026-05-04" x="142" y="282" width="11" height="11" rx="2" fill="#1b1b1b"/><rect class="grid-cell" data-date="2026-05-05" x="142" y="296" width="11" height="11" rx="2" fill="#1b1b1b"/><rect class="grid-cell" data-date="2026-05-06" x="156" y="212" width="11" height="11" rx="2" fill="#1b1b1b"/><rect class="grid-cell" data-date="2026-05-07" x="156" y="226" width="11" height="11" rx="2" fill="#1b1b1b"/><rect class="grid-cell" data-date="2026-05-08" x="156" y="240" width="11" height="11" rx="2" fill="#1b1b1b"/><rect class="grid-cell" data-date="2026-05-09" x="156" y="254" width="11" height="11" rx="2" fill="#1b1b1b"/><rect class="grid-cell" data-date="2026-05-10" x="156" y="268" width="11" height="11" rx="2" fill="#1b1b1b"/><rect class="grid-cell" data-date="2026-05-11" x="156" y="282" width="11" height="11" rx="2" fill="#1b1b1b"/><rect class="grid-cell" data-date="2026-05-12" x="156" y="296" width="11" height="11" rx="2" fill="#1b1b1b"/><rect class="grid-cell" data-date="2026-05-13" x="170" y="212" width="11" height="11" rx="2" fill="#1b1b1b"/><rect class="grid-cell" data-date="2026-05-14" x="170" y="226" width="11" height="11" rx="2" fill="#1b1b1b"/><rect class="grid-cell" data-date="2026-05-15" x="170" y="240" width="11" height="11" rx="2" fill="#1b1b1b"/><rect class="grid-cell" data-date="2026-05-16" x="170" y="254" width="11" height="11" rx="2" fill="#1b1b1b"/><rect class="grid-cell" data-date="2026-05-17" x="170" y="268" width="11" height="11" rx="2" fill="#1b1b1b"/><rect class="grid-cell" data-date="2026-05-18" x="170" y="282" width="11" height="11" rx="2" fill="#1b1b1b"/><rect class="grid-cell" data-date="2026-05-19" x="170" y="296" width="11" height="11" rx="2" fill="#1b1b1b"/><rect class="grid-cell" data-date="2026-05-20" x="184" y="212" width="11" height="11" rx="2" fill="#1b1b1b"/><rect class="grid-cell" data-date="2026-05-21" x="184" y="226" width="11" height="11" rx="2" fill="#1b1b1b"/><rect class="grid-cell" data-date="2026-05-22" x="184" y="240" width="11" height="11" rx="2" fill="#1b1b1b"/><rect class="grid-cell" data-date="2026-05-23" x="184" y="254" width="11" height="11" rx="2" fill="#1b1b1b"/><rect class="grid-cell" data-date="2026-05-24" x="184" y="268" width="11" height="11" rx="2" fill="#1b1b1b"/><rect class="grid-cell" data-date="2026-05-25" x="184" y="282" width="11" height="11" rx="2" fill="#1b1b1b"/><rect class="grid-cell" data-date="2026-05-26" x="184" y="296" width="11" height="11" rx="2" fill="#1b1b1b"/><rect class="grid-cell" data-date="2026-05-27" x="198" y="212" width="11" height="11" rx="2" fill="#1b1b1b"/><rect class="grid-cell" data-date="2026-05-28" x="198" y="226" width="11" height="11" rx="2" fill="#1b1b1b"/><rect class="grid-cell" data-date="2026-05-29" x="198" y="240" width="11" height="11" rx="2" fill="#1b1b1b"/><rect class="grid-cell" data-date="2026-05-30" x="198" y="254" width="11" height="11" rx="2" fill="#1b1b1b"/><rect class="grid-cell" data-date="2026-05-31" x="198" y="268" width="11" height="11" rx="2" fill="#1b1b1b"/><rect class="grid-cell" data-date="2026-06-01" x="198" y="282" width="11" height="11" rx="2" fill="#1b1b1b"/><rect class="grid-cell" data-date="2026-06-02" x="198" y="296" width="11" height="11" rx="2" fill="#1b1b1b"/><rect class="grid-cell" data-date="2026-06-03" x="212" y="212" width="11" height="11" rx="2" fill="#0e4429"/><rect class="grid-cell" data-date="2026-06-04" x="212" y="226" width="11" height="11" rx="2" fill="#1b1b1b"/><rect class="grid-cell" data-date="2026-06-05" x="212" y="240" width="11" height="11" rx="2" fill="#0e4429"/><rect class="grid-cell" data-date="2026-06-06" x="212" y="254" width="11" height="11" rx="2" fill="#1b1b1b"/><rect class="grid-cell" data-date="2026-06-07" x="212" y="268" width="11" height="11" rx="2" fill="#0e4429"/><rect class="grid-cell" data-date="2026-06-08" x="212" y="282" width="11" height="11" rx="2" fill="#0e4429"/><rect class="grid-cell" data-date="2026-06-09" x="212" y="296" width="11" height="11" rx="2" fill="#0e4429"/><rect class="grid-cell" data-date="2026-06-10" x="226" y="212" width="11" height="11" rx="2" fill="#0e4429"/><rect class="grid-cell" data-date="2026-06-11" x="226" y="226" width="11" height="11" rx="2" fill="#0e4429"/><rect class="grid-cell" data-date="2026-06-12" x="226" y="240" width="11" height="11" rx="2" fill="#0e4429"/><rect class="grid-cell" data-date="2026-06-13" x="226" y="254" width="11" height="11" rx="2" fill="#0e4429"/><rect class="grid-cell" data-date="2026-06-14" x="226" y="268" width="11" height="11" rx="2" fill="#1b1b1b"/><rect class="grid-cell" data-date="2026-06-15" x="226" y="282" width="11" height="11" rx="2" fill="#1b1b1b"/><rect class="grid-cell" data-date="2026-06-16" x="226" y="296" width="11" height="11" rx="2" fill="#0e4429"/><rect class="grid-cell" data-date="2026-06-17" x="240" y="212" width="11" height="11" rx="2" fill="#0e4429"/><rect class="grid-cell" data-date="2026-06-18" x="240" y="226" width="11" height="11" rx="2" fill="#0e4429"/><rect class="grid-cell" data-date="2026-06-19" x="240" y="240" width="11" height="11" rx="2" fill="#0e4429"/><rect class="grid-cell" data-date="2026-06-20" x="240" y="254" width="11" height="11" rx="2" fill="#0e4429"/><rect class="grid-cell" data-date="2026-06-21" x="240" y="268" width="11" height="11" rx="2" fill="#0e4429"/><rect class="grid-cell" data-date="2026-06-22" x="240" y="282" width="11" height="11" rx="2" fill="#0e4429"/><rect class="grid-cell" data-date="2026-06-23" x="240" y="296" width="11" height="11" rx="2" fill="#0e4429"/><rect class="grid-cell" data-date="2026-06-24" x="254" y="212" width="11" height="11" rx="2" fill="#0e4429"/><rect class="grid-cell" data-date="2026-06-25" x="254" y="226" width="11" height="11" rx="2" fill="#0e4429"/><rect class="grid-cell" data-date="2026-06-26" x="254" y="240" width="11" height="11" rx="2" fill="#1b1b1b"/><rect class="grid-cell" data-date="2026-06-27" x="254" y="254" width="11" height="11" rx="2" fill="#1b1b1b"/><rect class="grid-cell" data-date="2026-06-28" x="254" y="268" width="11" height="11" rx="2" fill="#1b1b1b"/><rect class="grid-cell" data-date="2026-06-29" x="254" y="282" width="11" height="11" rx="2" fill="#1b1b1b"/><rect class="grid-cell" data-date="2026-06-30" x="254" y="296" width="11" height="11" rx="2" fill="#0e4429"/><rect class="grid-cell" data-date="2026-07-01" x="268" y="212" width="11" height="11" rx="2" fill="#1b1b1b"/><rect class="grid-cell" data-date="2026-07-02" x="268" y="226" width="11" height="11" rx="2" fill="#1b1b1b"/><rect class="grid-cell" data-date="2026-07-03" x="268" y="240" width="11" height="11" rx="2" fill="#1b1b1b"/><rect class="grid-cell" data-date="2026-07-04" x="268" y="254" width="11" height="11" rx="2" fill="#1b1b1b"/><rect class="grid-cell" data-date="2026-07-05" x="268" y="268" width="11" height="11" rx="2" fill="#1b1b1b"/><rect class="grid-cell" data-date="2026-07-06" x="268" y="282" width="11" height="11" rx="2" fill="#1b1b1b"/><rect class="grid-cell" data-date="2026-07-07" x="268" y="296" width="11" height="11" rx="2" fill="#1b1b1b"/><rect class="grid-cell" data-date="2026-07-08" x="282" y="212" width="11" height="11" rx="2" fill="#0e4429"/><rect class="grid-cell" data-date="2026-07-09" x="282" y="226" width="11" height="11" rx="2" fill="#1b1b1b"/><rect class="grid-cell" data-date="2026-07-10" x="282" y="240" width="11" height="11" rx="2" fill="#0e4429"/><rect class="grid-cell" data-date="2026-07-11" x="282" y="254" width="11" height="11" rx="2" fill="#0e4429"/><rect class="grid-cell" data-date="2026-07-12" x="282" y="268" width="11" height="11" rx="2" fill="#0e4429"/><rect class="grid-cell" data-date="2026-07-13" x="282" y="282" width="11" height="11" rx="2" fill="#0e4429"/><rect class="grid-cell" data-date="2026-07-14" x="282" y="296" width="11" height="11" rx="2" fill="#0e4429"/><rect class="grid-cell" data-date="2026-07-15" x="296" y="212" width="11" height="11" rx="2" fill="#0e4429"/><rect class="grid-cell" data-date="2026-07-16" x="296" y="226" width="11" height="11" rx="2" fill="#0e4429"/><rect class="grid-cell" data-date="2026-07-17" x="296" y="240" width="11" height="11" rx="2" fill="#0e4429"/><rect class="grid-cell" data-date="2026-07-18" x="296" y="254" width="11" height="11" rx="2" fill="#0e4429"/><rect class="grid-cell" data-date="2026-07-19" x="296" y="268" width="11" height="11" rx="2" fill="#0e4429"/><rect class="grid-cell" data-date="2026-07-20" x="296" y="282" width="11" height="11" rx="2" fill="#0e4429"/><rect class="grid-cell" data-date="2026-07-21" x="296" y="296" width="11" height="11" rx="2" fill="#0e4429"/><rect class="grid-cell" data-date="2026-07-22" x="310" y="212" width="11" height="11" rx="2" fill="#0e4429"/><rect class="grid-cell" data-date="2026-07-23" x="310" y="226" width="11" height="11" rx="2" fill="#0e4429"/><rect class="grid-cell" data-date="2026-07-24" x="310" y="240" width="11" height="11" rx="2" fill="#0e4429"/><rect class="grid-cell" data-date="2026-07-25" x="310" y="254" width="11" height="11" rx="2" fill="#0e4429"/><rect class="grid-cell" data-date="2026-07-26" x="310" y="268" width="11" height="11" rx="2" fill="#0e4429"/><rect class="grid-cell" data-date="2026-07-27" x="310" y="282" width="11" height="11" rx="2" fill="#0e4429"/><rect class="grid-cell" data-date="2026-07-28" x="310" y="296" width="11" height="11" rx="2" fill="#0e4429"/><rect class="grid-cell" data-date="2026-07-29" x="324" y="212" width="11" height="11" rx="2" fill="#0e4429"/><rect class="grid-cell" data-date="2026-07-30" x="324" y="226" width="11" height="11" rx="2" fill="#0e4429"/><rect class="grid-cell" data-date="2026-07-31" x="324" y="240" width="11" height="11" rx="2" fill="#0e4429"/><rect class="grid-cell" data-date="2026-08-01" x="324" y="254" width="11" height="11" rx="2" fill="#0e4429"/><rect class="grid-cell" data-date="2026-08-02" x="324" y="268" width="11" height="11" rx="2" fill="#0e4429"/><rect class="grid-cell" data-date="2026-08-03" x="324" y="282" width="11" height="11" rx="2" fill="#0e4429"/><rect class="grid-cell" data-date="2026-08-04" x="324" y="296" width="11" height="11" rx="2" fill="#0e4429"/><rect class="grid-cell" data-date="2026-08-05" x="338" y="212" width="11" height="11" rx="2" fill="#0e4429"/><rect class="grid-cell" data-date="2026-08-06" x="338" y="226" width="11" height="11" rx="2" fill="#0e4429"/><rect class="grid-cell" data-date="2026-08-07" x="338" y="240" width="11" height="11" rx="2" fill="#0e4429"/><rect class="grid-cell" data-date="2026-08-08" x="338" y="254" width="11" height="11" rx="2" fill="#0e4429"/><rect class="grid-cell" data-date="2026-08-09" x="338" y="268" width="11" height="11" rx="2" fill="#0e4429"/><rect class="grid-cell" data-date="2026-08-10" x="338" y="282" width="11" height="11" rx="2" fill="#0e4429"/><rect class="grid-cell" data-date="2026-08-11" x="338" y="296" width="11" height="11" rx="2" fill="#0e4429"/><rect class="grid-cell" data-date="2026-08-12" x="352" y="212" width="11" height="11" rx="2" fill="#0e4429"/><rect class="grid-cell" data-date="2026-08-13" x="352" y="226" width="11" height="11" rx="2" fill="#0e4429"/><rect class="grid-cell" data-date="2026-08-14" x="352" y="240" width="11" height="11" rx="2" fill="#1b1b1b"/><rect class="grid-cell" data-date="2026-08-15" x="352" y="254" width="11" height="11" rx="2" fill="#1b1b1b"/><rect class="grid-cell" data-date="2026-08-16" x="352" y="268" width="11" height="11" rx="2" fill="#1b1b1b"/><rect class="grid-cell" data-date="2026-08-17" x="352" y="282" width="11" height="11" rx="2" fill="#0e4429"/><rect class="grid-cell" data-date="2026-08-18" x="352" y="296" width="11" height="11" rx="2" fill="#0e4429"/><rect class="grid-cell" data-date="2026-08-19" x="366" y="212" width="11" height="11" rx="2" fill="#0e4429"/><rect class="grid-cell" data-date="2026-08-20" x="366" y="226" width="11" height="11" rx="2" fill="#0e4429"/><rect class="grid-cell" data-date="2026-08-21" x="366" y="240" width="11" height="11" rx="2" fill="#0e4429"/><rect class="grid-cell" data-date="2026-08-22" x="366" y="254" width="11" height="11" rx="2" fill="#006d32"/><rect class="grid-cell" data-date="2026-08-23" x="366" y="268" width="11" height="11" rx="2" fill="#0e4429"/><rect class="grid-cell" data-date="2026-08-24" x="366" y="282" width="11" height="11" rx="2" fill="#26a641"/><rect class="grid-cell" data-date="2026-08-25" x="366" y="296" width="11" height="11" rx="2" fill="#39d353"/><rect class="grid-cell" data-date="2026-08-26" x="380" y="212" width="11" height="11" rx="2" fill="#0e4429"/><rect class="grid-cell" data-date="2026-08-27" x="380" y="226" width="11" height="11" rx="2" fill="#006d32"/><rect class="grid-cell" data-date="2026-08-28" x="380" y="240" width="11" height="11" rx="2" fill="#0e4429"/><rect class="grid-cell" data-date="2026-08-29" x="380" y="254" width="11" height="11" rx="2" fill="#0e4429"/><rect class="grid-cell" data-date="2026-08-30" x="380" y="268" width="11" height="11" rx="2" fill="#0e4429"/><rect class="grid-cell" data-date="2026-08-31" x="380" y="282" width="11" height="11" rx="2" fill="#0e4429"/><rect class="grid-cell" data-date="2026-09-01" x="380" y="296" width="11" height="11" rx="2" fill="#0e4429"/><text x="258" y="327" class="foot">Less</text><rect class="legend-cell" x="292" y="318" width="11" height="11" rx="2" fill="#1b1b1b"/><rect class="legend-cell" x="306" y="318" width="11" height="11" rx="2" fill="#0e4429"/><rect class="legend-cell" x="320" y="318" width="11" height="11" rx="2" fill="#006d32"/><rect class="legend-cell" x="334" y="318" width="11" height="11" rx="2" fill="#26a641"/><rect class="legend-cell" x="348" y="318" width="11" height="11" rx="2" fill="#39d353"/><text x="370" y="327" class="foot">More</text></g>
</svg>
